<svg xmlns="http://www.w3.org/2000/svg" xmlns:xlink="http://www.w3.org/1999/xlink" version="1.1" x="0px" y="0px" viewBox="0 0 504 580" style="enable-background:new 0 0 504 464;" xml:space="preserve"><g><path d="M479.64,0H24.36C10.928,0,0,10.955,0,24.42v332.25c0,13.465,10.928,24.42,24.36,24.42H198.4v50.04h-58   c-2.209,0-4,1.791-4,4V460c0,2.209,1.791,4,4,4h223.2c2.209,0,4-1.791,4-4v-24.87c0-2.209-1.791-4-4-4h-58v-50.04h174.04   c13.432,0,24.36-10.955,24.36-24.42V24.42C504,10.955,493.072,0,479.64,0z M297.6,431.13h-91.2v-50.04h91.2V431.13z M496,323.35H8   V24.42C8,15.366,15.339,8,24.36,8h455.28C488.661,8,496,15.366,496,24.42V323.35z"/><path d="M416.88,129.65h-53.49c-2.209,0-4,1.791-4,4v160.94c0,2.209,1.791,4,4,4h53.49c2.209,0,4-1.791,4-4V133.65   C420.88,131.441,419.089,129.65,416.88,129.65z"/><path d="M332.19,84.94H278.7c-2.209,0-4,1.791-4,4v205.65c0,2.209,1.791,4,4,4h53.49c2.209,0,4-1.791,4-4V88.94   C336.19,86.731,334.399,84.94,332.19,84.94z"/><path d="M247.49,156.47H194c-2.209,0-4,1.791-4,4v134.12c0,2.209,1.791,4,4,4h53.49c2.209,0,4-1.791,4-4V160.47   C251.49,158.261,249.699,156.47,247.49,156.47z"/><path d="M162.8,187.76h-53.49c-2.209,0-4,1.791-4,4v102.83c0,2.209,1.791,4,4,4h53.49c2.209,0,4-1.791,4-4V191.76   C166.8,189.551,165.009,187.76,162.8,187.76z"/><path d="M147.534,148.354c-2.842-3.297-7.03-5.294-11.484-5.294c-8.348,0-15.14,6.81-15.14,15.18c0,8.365,6.792,15.17,15.14,15.17   c8.354,0,15.15-6.805,15.15-15.17c0-0.886-0.101-1.771-0.257-2.649l58.324-27.717c2.838,3.303,7.025,5.305,11.483,5.305   c8.348,0,15.14-6.81,15.14-15.18c0-2.68-0.703-5.248-1.997-7.514l64.052-64.247c2.26,1.297,4.821,2.001,7.495,2.001   c3.107,0,6.08-0.969,8.578-2.696l62.374,52.675c-0.915,1.984-1.402,4.157-1.402,6.37c0,8.365,6.792,15.17,15.14,15.17   c8.354,0,15.15-6.805,15.15-15.17c0-8.37-6.796-15.18-15.15-15.18c-3.098,0-6.069,0.968-8.573,2.699L319.18,39.433   c0.913-1.98,1.4-4.154,1.4-6.373c0-8.371-6.792-15.18-15.14-15.18s-15.14,6.81-15.14,15.18c0,2.68,0.703,5.248,1.997,7.514   l-64.052,64.247c-2.26-1.297-4.821-2.001-7.495-2.001c-8.354,0-15.15,6.81-15.15,15.18c0,0.898,0.098,1.776,0.25,2.642   L147.534,148.354z"/><path d="M162.34,124.71V35.29c0-2.209-1.791-4-4-4H33.53c-2.209,0-4,1.791-4,4v89.42c0,2.209,1.791,4,4,4h124.81   C160.549,128.71,162.34,126.919,162.34,124.71z M154.34,120.71H37.53V39.29h116.81V120.71z"/><path d="M51.36,66.12h89.15c2.209,0,4-1.791,4-4s-1.791-4-4-4H51.36c-2.209,0-4,1.791-4,4S49.151,66.12,51.36,66.12z"/><path d="M51.36,97.41h89.15c2.209,0,4-1.791,4-4s-1.791-4-4-4H51.36c-2.209,0-4,1.791-4,4S49.151,97.41,51.36,97.41z"/></g><text x="0" y="479" fill="#000000" font-size="5px" font-weight="bold" font-family="'Helvetica Neue', Helvetica, Arial-Unicode, Arial, Sans-serif">Created by Amethyst Studio</text><text x="0" y="484" fill="#000000" font-size="5px" font-weight="bold" font-family="'Helvetica Neue', Helvetica, Arial-Unicode, Arial, Sans-serif">from the Noun Project</text></svg>